# xmcd CD database generated by RipIT
#
# Track frame offsets:
# 150
# 16055
# 32043
# 44710
# 64531
# 79400
# 97294
# 112410
# 134781
# 158596
#
# Disc length: 2330 seconds
#
# Revision: 0
# Processed by: cddbd v1.5.2PL0 Copyright (c) Steve Scherf et al.
# Submitted via: RipIT 3.9.0 www.suwald.com/ripit/ripit.html on 2011-11-01 at 21:58
#
DISCID=8f09180a
DTITLE=Dr. Rubberfunk - Hot Stone
DYEAR=2009
DGENRE=Funk
TTITLE0=Part of me
TTITLE1=Trouble woman
TTITLE2=Northern comfort
TTITLE3=It's not clear
TTITLE4=Get away
TTITLE5=Theme from hot stone
TTITLE6=Rising steps
TTITLE7=Magic beans
TTITLE8=You're no good
TTITLE9=Sunset breakup
EXTD=
EXTT0=
EXTT1=
EXTT2=
EXTT3=
EXTT4=
EXTT5=
EXTT6=
EXTT7=
EXTT8=
EXTT9=
PLAYORDER=
